<svg width="146" height="25" viewBox="0 0 146 25" fill="none" xmlns="http://www.w3.org/2000/svg">
<path d="M0.844619 0.470122H12.0762C15.287 0.470122 17.8748 1.24286 19.8395 2.78833C22.5711 4.9448 23.9368 8.25738 23.9368 12.7261C23.9368 15.829 23.2839 18.3928 21.9781 20.4175C20.4086 22.8495 18.1743 24.3051 15.275 24.7844C14.4364 24.9281 13.424 25 12.238 25H0.844619V0.470122ZM8.12271 6.84969V18.6204H10.8003C12.2619 18.6204 13.4061 18.3389 14.2327 17.7758C15.7183 16.7695 16.4611 15.1162 16.4611 12.8159C16.4611 10.336 15.7003 8.61081 14.1788 7.64039C13.3522 7.11326 12.256 6.84969 10.8902 6.84969H8.12271ZM31.5384 21.5137L30.3524 25H23.0203L32.0057 0.470122H39.4095L48.3948 25H40.8472L39.715 21.5137H31.5384ZM33.2456 16.446H38.0438L35.7435 9.22181L33.2456 16.446ZM71.6129 0.470122V25H64.1191L56.6973 12.3667V25H49.3293V0.470122H56.7512L64.2449 13.2652V0.470122H71.6129Z" fill="#E92B2B"/>
<path d="M78.891 0.470122H91.0032C93.4711 0.470122 95.2742 0.763642 96.4123 1.35068C97.4067 1.85386 98.1974 2.55471 98.7844 3.45324C99.4673 4.47158 99.8087 5.61571 99.8087 6.88563C99.8087 9.06606 98.8204 10.6595 96.8436 11.6658C99.5392 12.792 100.887 14.7987 100.887 17.686C100.887 19.6388 100.228 21.2921 98.9102 22.6459C97.6882 23.9038 96.0529 24.6466 94.0042 24.8742C93.2615 24.9581 92.2791 25 91.0571 25H78.891V0.470122ZM86.1691 6.23869V9.9586H89.853C90.8833 9.9586 91.5782 9.88672 91.9376 9.74295C92.6205 9.47939 92.9619 8.94027 92.9619 8.1256C92.9619 7.26301 92.5546 6.68795 91.7399 6.40042C91.4524 6.2926 90.8354 6.23869 89.889 6.23869H86.1691ZM86.1691 14.7388V19.2314H90.7875C91.7579 19.2314 92.4228 19.1416 92.7822 18.9619C93.537 18.6025 93.9144 17.9495 93.9144 17.0031C93.9144 15.805 93.3094 15.0802 92.0994 14.8286C91.8238 14.7687 91.3326 14.7388 90.6258 14.7388H86.1691ZM109.387 15.3318V18.6204H123.099V25H102.019V0.470122H122.757V6.84969H109.387V9.94063H120.906V15.3318H109.387ZM145.113 18.6204V25H123.71V18.6204L134.42 6.84969H124.375V0.470122H144.394V6.09492L133.018 18.6204H145.113Z" fill="#EEEEEE"/>
</svg>
