<svg width="36" height="36" viewBox="0 0 36 36" fill="none" xmlns="http://www.w3.org/2000/svg">
<path d="M32.9975 23.005L35.5 20.5025L32.9975 18L26.75 24.2475L11.7525 9.25L18 3.0025L15.4975 0.5L12.995 3.0025L10.4925 0.5L6.7475 4.245L4.245 1.7425L1.7425 4.245L4.245 6.7475L0.5 10.4925L3.0025 12.995L0.5 15.4975L3.0025 18L9.25 11.7525L24.2475 26.75L18 32.9975L20.5025 35.5L23.005 32.9975L25.5075 35.5L29.2525 31.755L31.755 34.2575L34.2575 31.755L31.755 29.2525L35.5 25.5075L32.9975 23.005Z" fill="#1E1E1E"/>
</svg>
