<svg width="130" height="42" viewBox="0 0 130 42" fill="none" xmlns="http://www.w3.org/2000/svg">
<path d="M46.5071 13.944C48.1273 12.3563 49.1318 12.3078 49.1318 12.3078C49.5045 12.3045 49.8736 12.3801 50.215 12.5296C50.9822 12.7954 51.0251 13.2137 51.0251 13.2137V24.8495C51.1246 28.1034 50.3122 29.3524 49.3424 30.2225C49.0481 30.4892 48.6827 30.665 48.2904 30.7286C48.2599 30.7363 48.228 30.737 48.1972 30.7306C48.1663 30.7242 48.1373 30.711 48.1123 30.6919C48.0872 30.6728 48.0669 30.6483 48.0526 30.6203C48.0384 30.5922 48.0307 30.5613 48.0301 30.5299C48.0462 30.305 48.0945 30.0836 48.1736 29.8724C48.6631 28.6164 48.6226 26.4579 48.6226 26.4579L48.6689 13.9324C48.6689 13.9324 48.7071 13.7013 48.5115 13.7961C46.5997 15.4369 46.359 17.7548 46.2976 18.8779C46.2664 20.5615 46.9827 21.4315 46.9827 21.4315C47.0379 21.4828 47.0812 21.5454 47.1095 21.615C47.1379 21.6847 47.1507 21.7597 47.1471 21.8348C47.1508 21.8749 47.1457 21.9153 47.132 21.9532C47.1183 21.991 47.0964 22.0254 47.0679 22.0539C47.0394 22.0824 47.005 22.1042 46.967 22.1179C46.9291 22.1315 46.8886 22.1367 46.8485 22.1329C46.1287 22.0636 44.9807 21.2548 44.5733 20.2726C44.3593 19.7987 44.2428 19.2867 44.2308 18.767C44.4117 16.9443 45.2194 15.2404 46.5164 13.9451L46.5071 13.944ZM129.992 25.0517C129.992 28.7886 127.724 28.7296 127.724 28.7296C125.564 28.8047 125.013 26.5296 124.879 24.2163C124.775 22.475 124.879 20.5384 124.879 20.5384C124.879 20.5384 124.879 20.4494 124.804 20.5384C124.081 21.8441 123.591 23.8315 123.35 25.366C123.245 26.0459 123.18 26.7316 123.158 27.4193C123.169 27.4844 123.162 27.5513 123.135 27.612C123.109 27.6727 123.066 27.7246 123.011 27.7613C121.839 28.2986 121.086 27.536 120.818 26.6833C120.476 25.8744 120.256 21.0167 120.256 20.7637C120.256 20.5106 120.053 20.6851 120.053 20.6851C118.429 23.3774 118.415 27.3685 118.415 28.1692C118.415 28.97 117.043 28.7239 117.043 28.7239C115.871 28.6349 115.916 28.0652 115.916 28.0652L115.862 27.1004C115.454 27.8515 114.7 28.8105 113.536 28.7458C111.774 28.6326 111.435 26.8127 111.406 26.5042C111.406 26.5042 110.529 28.7689 108.12 28.7458C106.481 28.7181 105.824 27.0357 105.824 27.0357C105.824 27.0357 105.164 28.8036 103.555 28.7458C101.947 28.688 100.616 26.8277 100.718 24.4173C100.74 23.197 100.903 21.9833 101.205 20.8006C101.205 20.8006 101.336 20.5695 101.116 20.5441C100.896 20.5187 99.505 20.5672 99.505 20.5672C99.505 20.5672 98.7181 23.7183 95.3921 27.6365L95.4153 30.2248C95.4153 32.8016 95.0935 36.2565 91.5963 36.5384C88.5735 36.3328 88.7448 34.0079 88.7448 34.0079C88.6731 33.3239 89.1036 32.0644 90.9089 30.3739L93.4317 28.0329L93.36 26.9513C92.205 28.8579 90.4402 28.7516 90.4402 28.7516C90.4402 28.7516 89.0688 29.0289 87.9289 27.0033C87.5864 27.6874 86.8249 28.8822 85.5716 28.7447C83.8102 28.5482 83.4608 26.7976 83.433 26.4857C83.433 26.4857 82.5535 28.7712 80.129 28.7447C78.4857 28.7169 77.8226 27.0172 77.8226 27.0172C77.6398 26.6419 77.5008 26.2468 77.4083 25.8397L77.3365 26.0524C76.9627 27.0068 76.0404 28.6661 74.6228 28.6869C72.0189 28.6869 71.909 24.6565 71.909 24.6565C71.1487 26.4591 69.6778 28.7354 66.9362 28.7215C64.1947 28.7077 63.8521 27.7186 63.8521 27.5753C63.8428 27.4381 63.8617 27.3005 63.9077 27.171C63.9537 27.0414 64.0257 26.9226 64.1195 26.8219C64.4342 26.3667 64.6981 26.1783 64.9295 26.1783C65.1583 26.2421 65.3685 26.3594 65.5429 26.5203C65.8893 26.8514 66.3374 27.0561 66.8147 27.1015C67.678 27.0703 67.8678 26.3794 67.928 25.6745C67.9882 24.9697 67.4882 24.2163 66.7974 23.5877L65.5776 22.4761L63.2885 26.2407C61.9554 28.4073 60.6326 28.7423 60.1223 28.6742C59.4279 28.5783 58.7509 27.8595 58.7104 25.7554L58.8678 19.8739C58.8678 19.6856 58.6965 19.778 58.6965 19.778C56.0614 22.5697 55.271 28.3125 55.271 28.4246C55.2252 28.5062 55.156 28.5722 55.0722 28.6142C54.9885 28.6562 54.8941 28.6723 54.8012 28.6603C54.5651 28.6603 54.8799 28.6603 53.9379 28.6141C52.9959 28.5679 53.0607 26.8034 53.0607 26.8034L53.122 18.2493C53.122 17.9651 53.4032 17.8426 54.2978 18.0783C55.1923 18.314 55.1611 18.5913 55.1611 18.5913L55.1299 23.56C57.4363 16.768 59.1768 17.8322 60.2299 18.3522C61.283 18.8721 61.1245 19.6186 61.1245 19.6186L60.9671 24.6681C60.9208 25.9853 61.106 26.5018 61.4068 26.5515C62.1544 26.7295 64.7791 21.6719 64.7791 21.6719C63.6172 20.4159 64.2514 18.8825 65.1564 18.2193C65.5631 17.9377 66.0352 17.7647 66.5277 17.7166C66.5277 17.7166 67.7035 17.6554 67.6734 18.6445C67.7047 19.726 66.4976 21.0398 66.4976 21.0398C68.8353 22.7037 69.9231 23.5819 70.106 24.8691C70.158 25.209 70.1347 25.5561 70.0377 25.886C71.6995 24.4416 71.8268 22.8274 71.8268 22.8274L71.8546 17.4278L69.3896 17.3966C69.3896 17.3966 69.201 17.3966 69.1582 16.9228C69.1416 16.6979 69.1738 16.4722 69.2525 16.2608C69.3312 16.0495 69.4545 15.8575 69.6141 15.698L71.9657 15.7292L72.0583 12.9063C72.137 12.3401 72.498 12.2627 73.5315 12.5296C74.5649 12.7966 74.5591 13.0323 74.5591 13.0323L74.4434 15.8725L77.377 16.0296C77.7242 16.0608 77.833 16.1452 77.7543 16.7229C77.7512 16.8695 77.7105 17.0128 77.6361 17.1392C77.5618 17.2656 77.4562 17.3709 77.3296 17.4451L74.4133 17.5063L74.2108 23.7691C74.2108 24.7397 74.2571 27.0334 75.1667 27.0045C76.4397 27.0657 77.1884 24.2255 77.1884 24.2255V24.2024C77.1717 23.6783 77.191 23.1536 77.2463 22.6321C77.4858 20.35 78.5193 17.6774 80.8453 17.6774C81.2982 17.6872 81.7399 17.8198 82.1232 18.061C82.5064 18.3022 82.8167 18.6429 83.021 19.0466L83.0592 18.5336C83.0592 18.5336 83.0083 17.9142 83.9908 18.0679C84.9733 18.2216 85.3101 18.6087 85.2869 18.9195L85.2082 25.2435C85.339 26.6128 85.5751 27.4135 86.2706 27.3581C86.8701 27.2691 87.2982 26.451 87.5528 25.7566C86.6826 18.5301 90.6369 17.6531 90.6369 17.6531C90.6369 17.6531 92.3913 17.5375 93.1898 18.9842L93.213 18.4989C93.213 18.4989 93.1343 17.8588 94.0624 18.0367C94.3348 18.0784 94.6023 18.1473 94.8609 18.2424C95.2718 18.3961 95.4025 18.4989 95.4025 18.8825L95.3238 26.02C95.3238 26.02 97.3803 23.2549 97.9045 20.5661C97.7 20.413 97.5323 20.2163 97.4137 19.9901C97.2952 19.764 97.2288 19.5143 97.2194 19.2592C97.2704 18.4897 97.6592 17.5687 98.7933 17.5687C99.9274 17.5687 100.02 18.5717 99.8522 19.2558C99.8522 19.2558 100.805 19.1402 101.631 18.9137C102.457 18.6873 103.564 18.5717 103.642 19.8612C103.672 20.1442 103.618 20.4296 103.488 20.6828C103.488 20.6828 102.833 23.5369 102.936 24.69C103.039 25.8432 103.347 27.5845 104.252 27.38C105.157 27.1755 105.465 25.8952 105.465 25.8952C105.239 24.8433 105.178 23.7628 105.283 22.6922C105.523 20.4274 106.538 17.7756 108.868 17.7756C109.32 17.786 109.76 17.9189 110.142 18.1601C110.524 18.4013 110.832 18.7417 111.035 19.1448L111.063 18.6318C111.063 18.6318 111.012 18.0159 111.992 18.1696C112.972 18.3233 113.308 18.7069 113.28 19.0131L113.201 25.2874C113.332 26.6567 113.565 27.4436 114.257 27.3881C114.949 27.3326 115.487 26.2419 115.836 25.3348V24.9928L115.857 18.3302C115.867 18.2272 115.912 18.1307 115.985 18.0572C116.058 17.9837 116.154 17.9377 116.258 17.9269L117.06 18.0506C118.182 18.2181 118.026 18.6457 118.026 18.6457V22.4102C118.859 19.8543 119.259 18.8791 119.637 18.2274C119.958 17.6727 121.008 18.0356 121.008 18.0356C121.008 18.0356 122.154 18.3406 122.165 19.4048C122.131 21.1427 122.378 23.9725 122.378 23.9725C122.378 23.9725 122.422 24.0302 122.443 24.0106C122.455 23.9923 122.461 23.971 122.46 23.9494C122.784 22.0229 123.349 20.1445 124.14 18.3579C124.554 17.5814 125.754 18.1326 125.754 18.1326C127.194 18.6249 126.998 19.4776 126.998 19.4776C126.573 26.7838 127.478 27.2448 128.013 27.2934C128.548 27.3419 128.829 26.6497 128.945 26.3227C129.06 25.9957 129.211 25.2759 129.287 24.9916C129.312 24.9109 129.361 24.8396 129.427 24.7865C129.493 24.7334 129.573 24.7011 129.657 24.6935C129.744 24.7064 129.824 24.7466 129.885 24.8081C129.947 24.8697 129.987 24.9494 130 25.0355L129.992 25.0517ZM81.4217 19.4533C80.9183 19.4741 79.7321 19.7954 79.5191 23.0931C79.3062 26.3909 80.1811 27.2367 80.9171 27.3338C81.6531 27.4309 82.9735 26.2476 83.0349 22.7465C83.0962 19.2454 81.4217 19.4533 81.4217 19.4533ZM91.756 19.4533C91.2422 19.4741 89.953 19.9225 89.6614 23.1082C89.445 26.4406 90.3465 27.3026 91.0802 27.4031C91.8139 27.5037 93.1366 26.3054 93.2292 22.7557C93.3218 19.2061 91.756 19.4707 91.756 19.4707V19.4533ZM93.4688 29.6748C90.549 32.1938 90.2955 33.9929 90.2955 33.9929C90.2955 33.9929 90.0062 35.4673 91.4123 35.5413C93.1019 35.7123 93.3866 33.6624 93.4306 31.8691L93.485 29.6933L93.4688 29.6748ZM109.497 19.57C108.993 19.5908 107.807 19.9121 107.594 23.2098C107.381 26.5076 108.256 27.3534 108.992 27.4505C109.728 27.5476 111.049 26.3643 111.11 22.8632C111.171 19.3621 109.497 19.57 109.497 19.57Z" fill="#EEEEEE"/>
<path d="M20.7066 10.11C20.3428 10.11 19.9829 10.1286 19.6283 10.1649C19.2737 10.2012 18.924 10.255 18.5803 10.3257C18.2365 10.3963 17.8989 10.4838 17.5681 10.5871L16.5969 10.9436L15.6724 11.3901L14.7999 11.921L13.9846 12.5308L13.2324 13.2141L12.5484 13.9657L11.938 14.78L11.4064 15.6517L10.9597 16.5752C10.8254 16.8911 10.706 17.2149 10.6026 17.5455C10.4992 17.8761 10.4117 18.2136 10.3409 18.5569C10.2701 18.9003 10.2163 19.2495 10.1799 19.6039C10.1434 19.9582 10.1251 20.3177 10.1251 20.6812C10.1251 21.0446 10.1437 21.4041 10.1799 21.7585C10.2158 22.11 10.2696 22.4594 10.3409 22.8055C10.4117 23.1502 10.4992 23.4863 10.6026 23.8169C10.706 24.1475 10.8253 24.4712 10.9597 24.7873L11.4064 25.7108L11.938 26.5823L12.5484 27.3968L13.2324 28.1484L13.9846 28.8317L14.7999 29.4415L15.6724 29.9724L16.5969 30.4188L17.5681 30.7754L18.5803 31.0368C18.9267 31.1081 19.2764 31.1618 19.6283 31.1977C19.9866 31.2343 20.3465 31.2525 20.7066 31.2525C21.0705 31.2525 21.4304 31.2339 21.7848 31.1977C22.1367 31.1618 22.4864 31.1081 22.8328 31.0368L23.8452 30.7754L24.8163 30.4188L25.7407 29.9724L26.6134 29.4415L27.4286 28.8317L28.181 28.1484L28.865 27.3968L29.4754 26.5823L30.007 25.7108L30.4537 24.7873L30.8108 23.8169C30.9142 23.4863 31.0017 23.1488 31.0725 22.8055L31.2335 21.7583C31.2698 21.404 31.2884 21.0445 31.2884 20.681C31.2884 20.3176 31.2698 19.9581 31.2335 19.6037C31.1975 19.2523 31.1438 18.9028 31.0725 18.5568C31.0017 18.2122 30.9142 17.8761 30.8108 17.5454L30.4537 16.5751L30.007 15.6515L29.4754 14.7799L28.865 13.9656L28.181 13.214L27.4286 12.5306L26.6134 11.9209L25.7407 11.39L24.8163 10.9435L23.8452 10.5869L22.8328 10.3255L21.7848 10.1647C21.4266 10.1282 21.0667 10.1098 20.7066 10.1099V10.11ZM20.7066 13.7588C20.9472 13.7588 21.1846 13.7707 21.4185 13.7943L22.1077 13.8986L22.7736 14.0683L23.4112 14.2999L24.0174 14.5902L24.5874 14.9355L25.1202 15.3327L25.6115 15.7784L26.0576 16.2691L26.4552 16.8015L26.8009 17.3723L27.0912 17.9781C27.1785 18.1854 27.2559 18.3979 27.3232 18.6151C27.3905 18.8324 27.4472 19.0544 27.4929 19.2806C27.5386 19.5067 27.5724 19.7368 27.5972 19.9705L27.6327 20.6818C27.6327 20.9222 27.6208 21.1594 27.5972 21.3933C27.5736 21.6271 27.5389 21.8572 27.4929 22.0832C27.4469 22.3092 27.3902 22.5313 27.3232 22.7487L27.0912 23.3857L26.8009 23.9915L26.4552 24.5622L26.0576 25.0947L25.6115 25.5854L25.1202 26.031L24.5874 26.4283L24.0174 26.7736L23.4112 27.0639L22.7736 27.2955L22.1077 27.4652L21.4185 27.5694C21.1819 27.5931 20.9443 27.6049 20.7065 27.6049C20.4687 27.6049 20.231 27.5931 19.9944 27.5694L19.3051 27.4652C19.0788 27.4193 18.8567 27.3626 18.6391 27.2955L18.0015 27.0639L17.3953 26.7736L16.8253 26.4283L16.2925 26.031L15.8012 25.5854L15.3552 25.0947L14.9575 24.5622L14.6118 23.9915L14.3215 23.3857L14.0895 22.7487L13.9198 22.0832L13.8155 21.3933C13.7918 21.1569 13.7799 20.9194 13.78 20.6818C13.7799 20.4443 13.7918 20.2069 13.8155 19.9705C13.839 19.7368 13.8738 19.5066 13.9198 19.2806C13.9654 19.0561 14.022 18.8341 14.0896 18.6153L14.3216 17.9782L14.6119 17.3724L14.9576 16.8016L15.3553 16.2693L15.8013 15.7785L16.2926 15.3329L16.8255 14.9356L17.3955 14.5903L18.0017 14.3C18.2103 14.2124 18.4231 14.1351 18.6394 14.0684L19.3054 13.8987C19.5316 13.8529 19.762 13.8179 19.9947 13.7944C20.2313 13.7707 20.4689 13.7589 20.7068 13.7589L20.7066 13.7588Z" fill="url(#paint0_radial_20_133)"/>
<path d="M31.7173 7.10278C31.6333 7.1028 31.5494 7.10705 31.4658 7.11551C31.3822 7.12396 31.299 7.13661 31.2167 7.15342C31.1343 7.17021 31.0529 7.19114 30.9726 7.21612C30.8924 7.24112 30.8134 7.27014 30.736 7.30308C30.6586 7.33605 30.5829 7.37291 30.5092 7.4135C30.4355 7.45401 30.3638 7.49821 30.2945 7.54592C30.2251 7.59369 30.1582 7.64492 30.0939 7.69942C30.0297 7.75387 29.9682 7.81152 29.9097 7.87215C29.8511 7.93281 29.7957 7.99638 29.7434 8.06263C29.6912 8.12888 29.6423 8.19772 29.597 8.26889C29.5516 8.34 29.5098 8.41335 29.4717 8.48867C29.4335 8.56404 29.3992 8.64129 29.3687 8.72011C29.3383 8.79893 29.3118 8.87923 29.2893 8.96071C29.2668 9.04218 29.2484 9.12473 29.2342 9.20806C29.2199 9.29136 29.2097 9.37533 29.2038 9.45965C29.1996 9.51938 29.1974 9.57925 29.1974 9.63913C29.1974 9.72373 29.2016 9.80827 29.21 9.89245C29.2184 9.97658 29.231 10.0602 29.2477 10.1431C29.2644 10.226 29.2852 10.308 29.31 10.3887C29.3348 10.4695 29.3637 10.549 29.3964 10.6269C29.4291 10.7049 29.4657 10.7811 29.506 10.8553C29.5463 10.9296 29.5902 11.0017 29.6377 11.0715C29.6851 11.1413 29.736 11.2086 29.7901 11.2733C29.8442 11.338 29.9015 11.3999 29.9618 11.4589C30.022 11.5178 30.0852 11.5736 30.151 11.6262C30.2169 11.6788 30.2853 11.728 30.356 11.7737C30.4267 11.8194 30.4997 11.8615 30.5746 11.8999C30.6494 11.9383 30.7261 11.9729 30.8044 12.0036C30.8827 12.0342 30.9625 12.0609 31.0434 12.0835C31.1244 12.1061 31.2064 12.1246 31.2892 12.1389C31.372 12.1533 31.4554 12.1635 31.5392 12.1695C31.5985 12.1738 31.658 12.1759 31.7175 12.1759C31.8015 12.1759 31.8855 12.1717 31.9691 12.1633C32.0527 12.1548 32.1358 12.1422 32.2181 12.1254C32.3005 12.1086 32.3819 12.0877 32.4622 12.0627C32.5424 12.0377 32.6214 12.0087 32.6988 11.9757C32.7762 11.9428 32.8519 11.906 32.9256 11.8654C32.9993 11.8249 33.071 11.7806 33.1403 11.7329C33.2097 11.6851 33.2766 11.634 33.3409 11.5795C33.4051 11.525 33.4666 11.4673 33.5252 11.4067C33.5837 11.346 33.6392 11.2824 33.6914 11.2162C33.7436 11.1499 33.7925 11.0811 33.8379 11.0099C33.8832 10.9388 33.925 10.8654 33.9631 10.79C34.0013 10.7146 34.0356 10.6374 34.0661 10.5585C34.0966 10.4797 34.1231 10.3994 34.1455 10.318C34.168 10.2365 34.1864 10.1539 34.2007 10.0706C34.2149 9.9873 34.2251 9.90333 34.231 9.81901C34.2353 9.75928 34.2374 9.69941 34.2374 9.63953C34.2374 9.55498 34.2332 9.47048 34.2248 9.38635C34.2164 9.30221 34.2038 9.21855 34.1871 9.13568C34.1705 9.05281 34.1497 8.97083 34.1248 8.89005C34.1 8.80925 34.0712 8.72975 34.0384 8.65185C34.0057 8.57392 33.9691 8.49769 33.9288 8.42345C33.8885 8.34922 33.8446 8.27706 33.7972 8.20725C33.7497 8.13744 33.6988 8.07006 33.6446 8.00537C33.5905 7.94067 33.5333 7.87873 33.4731 7.81978C33.4128 7.76088 33.3496 7.70505 33.2838 7.6525C33.2179 7.59996 33.1495 7.55076 33.0788 7.50509C33.0081 7.45939 32.9352 7.41727 32.8603 7.3789C32.7854 7.34051 32.7087 7.30591 32.6304 7.27524C32.5521 7.2446 32.4723 7.21793 32.3914 7.19531C32.3104 7.17268 32.2284 7.15415 32.1456 7.13977C32.0629 7.12542 31.9794 7.11524 31.8956 7.10928C31.8363 7.10504 31.7768 7.10292 31.7173 7.10292V7.10278Z" fill="url(#paint1_radial_20_133)"/>
<path d="M18.7 0.000385493C17.5491 -0.00147031 16.5221 0.0033011 15.5995 0.0162917L13.1259 0.0825703C12.3932 0.114384 11.7458 0.155871 11.1646 0.209557C10.8741 0.236334 10.5999 0.266292 10.3401 0.299299C10.0929 0.33046 9.84632 0.366746 9.60059 0.40813C9.36662 0.447897 9.14459 0.490843 8.9317 0.537503C8.71882 0.584163 8.51547 0.634537 8.31929 0.688621C8.1275 0.741506 7.93721 0.799678 7.74863 0.863067C7.56384 0.925369 7.38357 0.991382 7.20554 1.0619C6.84949 1.20294 6.50219 1.36121 6.14456 1.53858C5.86937 1.67511 5.61512 1.81337 5.3736 1.95971C5.13208 2.10605 4.90329 2.26062 4.67927 2.42896C4.44856 2.60318 4.22619 2.78817 4.0129 2.98332C3.78994 3.1864 3.56221 3.40975 3.32559 3.65936C3.02827 3.97127 2.76991 4.2621 2.54059 4.54749C2.42593 4.69012 2.31856 4.83116 2.21742 4.973C2.11739 5.11278 2.02177 5.25566 1.9307 5.40142C1.84056 5.54591 1.75519 5.69305 1.67353 5.84443C1.59061 5.99842 1.51223 6.15482 1.43851 6.31342C1.28766 6.63739 1.14688 6.98628 1.00637 7.37573C0.902133 7.66365 0.808791 7.95539 0.726546 8.25034C0.642637 8.55178 0.568007 8.86713 0.501464 9.2082C0.43492 9.54927 0.37686 9.91606 0.325825 10.3217C0.27083 10.7663 0.226896 11.2122 0.194064 11.6591C0.156948 12.1503 0.126194 12.6909 0.101008 13.2926L0.0413579 15.2931L0.00927896 17.7318L0 20.6794L0.0271742 24.9659L0.112011 28.2136L0.177361 29.4822L0.259017 30.5333C0.285192 30.8167 0.317943 31.0994 0.357242 31.3812C0.393032 31.6314 0.431473 31.8504 0.472831 32.04C0.55675 32.4254 0.655981 32.8073 0.77029 33.1847C0.879739 33.5462 1.0049 33.9026 1.14543 34.2532C1.28355 34.5965 1.43467 34.9276 1.59904 35.2463C1.76341 35.5649 1.94103 35.8711 2.13192 36.1653C2.3228 36.4594 2.52694 36.7415 2.74486 37.0115C2.96254 37.2816 3.19407 37.5401 3.43853 37.7862C3.68337 38.0328 3.94159 38.2674 4.21373 38.4903C4.48909 38.7159 4.77531 38.9278 5.07137 39.1253C5.34616 39.309 5.61804 39.4772 5.8919 39.6317C6.16576 39.7861 6.44201 39.9262 6.72595 40.0536C7.00989 40.181 7.30098 40.2956 7.60507 40.3988C7.90916 40.5019 8.22597 40.5936 8.56081 40.675C8.89565 40.7564 9.2501 40.8279 9.62524 40.8902C10.0004 40.9525 10.4014 41.0059 10.8298 41.0519C11.2582 41.0979 11.7153 41.1359 12.2064 41.1677C12.6975 41.1995 13.2224 41.225 13.7865 41.2454C14.6578 41.277 15.9767 41.2954 17.4977 41.3024L22.4215 41.2925L27.0841 41.2271L28.8569 41.1773L30.0119 41.1179C30.2598 41.0977 30.5023 41.0739 30.7364 41.0459C30.9705 41.0179 31.2014 40.986 31.4263 40.9497C31.6511 40.9134 31.8709 40.8728 32.0868 40.8277C32.3002 40.7833 32.5126 40.7336 32.7236 40.6789C32.9325 40.6258 33.1385 40.5655 33.3424 40.5015C33.5462 40.4375 33.748 40.3683 33.9486 40.294C34.1503 40.2193 34.3501 40.1397 34.548 40.0553C34.7472 39.9705 34.9462 39.8798 35.1458 39.7836C35.4524 39.6359 35.6992 39.5128 35.916 39.3925C36.1198 39.2807 36.3162 39.1556 36.5037 39.0182C36.6888 38.8819 36.8728 38.7268 37.0849 38.5314C37.2969 38.336 37.5373 38.1006 37.8349 37.8029C38.0964 37.5415 38.317 37.3143 38.5072 37.1076C38.6974 36.901 38.8577 36.715 38.9982 36.5358C39.1321 36.3657 39.2569 36.1887 39.372 36.0053C39.4843 35.8263 39.5877 35.6405 39.6931 35.4344C39.8516 35.1242 39.9926 34.8369 40.119 34.5598C40.2416 34.2926 40.3537 34.0208 40.4549 33.7448C40.5545 33.471 40.6408 33.1925 40.7135 32.9104C40.7882 32.6201 40.8527 32.3136 40.9083 31.9774C40.964 31.6412 41.0111 31.2754 41.0519 30.8668C41.0927 30.4583 41.1275 30.0068 41.1579 29.4995L41.2388 27.7966L41.3083 25.6787L41.3578 23.3192L41.3769 20.852L41.3326 16.0064L41.2734 13.836L41.1925 11.9725L41.0918 10.5197C41.0552 10.1154 41.0157 9.79702 40.9738 9.58175C40.9275 9.34389 40.8757 9.10712 40.8185 8.87164C40.7628 8.6425 40.7016 8.41475 40.6349 8.18857C40.5698 7.96822 40.4992 7.74956 40.423 7.53281C40.3478 7.31873 40.2679 7.10916 40.1844 6.90409C40.1009 6.69903 40.0105 6.49873 39.9164 6.30268C39.8223 6.10663 39.7237 5.91535 39.6201 5.72844C39.5166 5.54154 39.4087 5.35927 39.2959 5.18151C39.1831 5.00375 39.0657 4.8305 38.9433 4.66189C38.8217 4.49381 38.6948 4.32958 38.5629 4.16944C38.4316 4.01017 38.2954 3.85509 38.1543 3.70443C38.0135 3.55396 37.8679 3.40798 37.7178 3.26673C37.5676 3.12542 37.4129 2.98862 37.2533 2.85633C37.0932 2.7236 36.9289 2.59589 36.7608 2.47337C36.5908 2.3496 36.4172 2.23104 36.2401 2.11785C36.0605 2.00305 35.8776 1.8936 35.6915 1.78964C35.5023 1.68394 35.31 1.58368 35.1149 1.489C34.7912 1.33165 34.4919 1.19207 34.198 1.06827C33.9092 0.945393 33.6146 0.836263 33.3155 0.741246C33.0146 0.646468 32.7013 0.565211 32.3567 0.495088C32.012 0.424965 31.6362 0.366508 31.2108 0.316799C30.7855 0.26709 30.3105 0.226926 29.7673 0.193521C29.2241 0.160117 28.6131 0.133869 27.9155 0.112659L25.5446 0.0596374L22.5439 0.0242448L18.7013 0.000648439L18.7 0.000385493ZM20.6956 3.64597L26.2369 3.67752L28.3273 3.71782C28.903 3.73399 29.3423 3.75294 29.5999 3.77482C29.9353 3.80305 30.2547 3.83844 30.5603 3.88086C30.8535 3.92135 31.1453 3.97171 31.4351 4.03184C31.7135 4.09017 31.979 4.15645 32.2331 4.23121C32.4872 4.30597 32.73 4.38975 32.9629 4.48241C33.1958 4.57506 33.4185 4.677 33.6328 4.78861C33.8454 4.89939 34.0521 5.02128 34.2518 5.15381C34.4507 5.2857 34.6424 5.4278 34.8285 5.58091C35.0146 5.73401 35.195 5.89812 35.3712 6.07362C35.5571 6.2588 35.7287 6.44743 35.8868 6.64203C36.0444 6.83541 36.1901 7.03811 36.3233 7.24901C36.458 7.46291 36.5794 7.68492 36.6868 7.91378C36.7965 8.14708 36.8952 8.39364 36.9837 8.6557C37.0723 8.91777 37.1511 9.19627 37.221 9.49386C37.2942 9.80937 37.3554 10.1275 37.4047 10.4476C37.4577 10.787 37.5031 11.1488 37.5415 11.5363C37.58 11.9238 37.6118 12.3369 37.638 12.779C37.659 13.1336 37.6773 13.6015 37.6928 14.1542L37.7316 16.0385L37.7613 20.6541L37.7275 25.2654L37.6869 27.1442L37.6311 28.5108C37.5924 29.1506 37.5516 29.6885 37.5028 30.1567C37.4783 30.3908 37.4518 30.6074 37.4223 30.8106C37.3948 31.0026 37.3621 31.1938 37.3244 31.3841C37.2899 31.5576 37.2499 31.7301 37.2044 31.9011C37.1609 32.0642 37.1118 32.2259 37.0574 32.3858C37.0026 32.5465 36.943 32.7054 36.8786 32.8625C36.8105 33.0284 36.7387 33.1926 36.6632 33.3552C36.596 33.5004 36.5253 33.6415 36.4506 33.779C36.3766 33.9151 36.2981 34.0486 36.2151 34.1793C36.133 34.3088 36.0468 34.4346 35.9567 34.5564C35.867 34.6779 35.773 34.796 35.6748 34.9106C35.577 35.0248 35.475 35.1353 35.369 35.242C35.263 35.3487 35.153 35.4517 35.039 35.5512C34.925 35.6506 34.8067 35.746 34.6844 35.838C34.562 35.93 34.4354 36.0183 34.3046 36.1029C34.1738 36.1874 34.0388 36.2686 33.8995 36.346C33.7602 36.4234 33.6165 36.4973 33.4687 36.5677C33.3183 36.6392 33.1659 36.7061 33.0115 36.7684C32.8519 36.8328 32.6906 36.8927 32.5277 36.948C32.1963 37.061 31.8467 37.1601 31.4787 37.2456C31.0952 37.3342 30.7082 37.4066 30.3186 37.4628C30.1688 37.4846 29.8246 37.5052 29.3315 37.5243L27.4523 37.5765L22.1249 37.6457L16.5487 37.6544L14.3589 37.6311L12.9369 37.5868L11.8884 37.5131C11.5628 37.4857 11.2601 37.4552 10.9764 37.4206C10.6927 37.386 10.4285 37.3474 10.18 37.304C9.94446 37.2632 9.71037 37.2146 9.4781 37.1581C9.26632 37.1066 9.05671 37.0466 8.84978 36.9781C8.65028 36.9119 8.45953 36.839 8.27395 36.7588C8.08837 36.6786 7.9081 36.5907 7.72954 36.4947C7.55099 36.3987 7.37429 36.2945 7.1956 36.1809C7.06079 36.0953 6.93049 36.0086 6.80509 35.9167C6.67969 35.8249 6.55853 35.7333 6.44188 35.6373C6.32523 35.5413 6.21322 35.4425 6.10519 35.3407C5.99787 35.2393 5.89423 35.1342 5.79447 35.0254C5.69505 34.917 5.60001 34.8054 5.50881 34.6898C5.41726 34.5738 5.33002 34.4544 5.24728 34.3319C5.1633 34.2076 5.08385 34.0802 5.00907 33.9501C4.93351 33.8189 4.86167 33.6832 4.7934 33.5432C4.72399 33.4005 4.65922 33.2556 4.5992 33.1088C4.53823 32.9593 4.48043 32.805 4.42608 32.6456C4.31739 32.3268 4.22195 31.9875 4.13897 31.6256C4.05598 31.2637 3.9852 30.8793 3.92528 30.4697C3.86537 30.0601 3.81712 29.6259 3.77867 29.1643C3.75031 28.8243 3.72777 28.2947 3.71054 27.6266L3.67448 25.2505L3.68774 19.1933L3.79206 13.4054L3.8716 11.3661L3.91667 10.692C3.93231 10.512 3.94848 10.3787 3.96505 10.2986C4.01966 10.0352 4.07468 9.79013 4.13154 9.56067C4.18466 9.3442 4.24376 9.12925 4.30877 8.91605C4.37054 8.71482 4.43563 8.52633 4.50522 8.34777C4.57233 8.17481 4.64712 8.00492 4.72937 7.83862C4.8097 7.6769 4.896 7.52208 4.98972 7.37136C5.08343 7.22064 5.18458 7.07443 5.29486 6.92901C5.40515 6.7836 5.52392 6.64004 5.65317 6.49449C5.78241 6.34894 5.92199 6.20194 6.07337 6.05043C6.2498 5.873 6.4335 5.70296 6.62401 5.54074C6.8039 5.3877 6.99149 5.24395 7.18606 5.11006C7.37734 4.97751 7.57352 4.85953 7.77779 4.7511C7.98206 4.64267 8.19442 4.54471 8.41778 4.45656C8.64114 4.36841 8.87576 4.28954 9.12431 4.21796C9.38542 4.14471 9.64943 4.08223 9.91567 4.03065C10.1956 3.97577 10.493 3.92792 10.8104 3.88616C11.1279 3.84441 11.4657 3.80835 11.8268 3.77707C12.0786 3.75533 12.5126 3.73598 13.0841 3.71967L15.1639 3.67858L20.6965 3.64478L20.6956 3.64597Z" fill="url(#paint2_radial_20_133)"/>
<defs>
<radialGradient id="paint0_radial_20_133" cx="0" cy="0" r="1" gradientUnits="userSpaceOnUse" gradientTransform="translate(6.59206 44.3132) rotate(-9.53101) scale(87.4495 53.0814)">
<stop stop-color="#FED576"/>
<stop offset="0.263" stop-color="#F47133"/>
<stop offset="0.609" stop-color="#BC3081"/>
<stop offset="1" stop-color="#4C63D2"/>
</radialGradient>
<radialGradient id="paint1_radial_20_133" cx="0" cy="0" r="1" gradientUnits="userSpaceOnUse" gradientTransform="translate(6.59206 44.3132) rotate(-9.53101) scale(87.4495 53.0814)">
<stop stop-color="#FED576"/>
<stop offset="0.263" stop-color="#F47133"/>
<stop offset="0.609" stop-color="#BC3081"/>
<stop offset="1" stop-color="#4C63D2"/>
</radialGradient>
<radialGradient id="paint2_radial_20_133" cx="0" cy="0" r="1" gradientUnits="userSpaceOnUse" gradientTransform="translate(6.59206 44.3132) rotate(-9.53101) scale(87.4495 53.0814)">
<stop stop-color="#FED576"/>
<stop offset="0.263" stop-color="#F47133"/>
<stop offset="0.609" stop-color="#BC3081"/>
<stop offset="1" stop-color="#4C63D2"/>
</radialGradient>
</defs>
</svg>
