<svg width="130" height="47" viewBox="0 0 130 47" fill="none" xmlns="http://www.w3.org/2000/svg">
<g clip-path="url(#clip0_20_94)">
<mask id="mask0_20_94" style="mask-type:luminance" maskUnits="userSpaceOnUse" x="0" y="0" width="130" height="47">
<path d="M129.67 0H0V46.129H129.67V0Z" fill="white"/>
</mask>
<g mask="url(#mask0_20_94)">
<path d="M10.7692 18.4516V17.2435C10.3297 17.1337 9.89011 17.1337 9.45055 17.1337C4.17582 17.1337 -0.109894 21.4171 -0.109894 26.689C-0.109894 29.8741 1.53846 32.8395 3.95604 34.487C2.30769 32.7297 1.42857 30.5331 1.42857 28.0069C1.42857 22.8449 5.60439 18.6713 10.7692 18.4516Z" fill="#25F4EE"/>
<path d="M11.0989 32.4002C13.4066 32.4002 15.3846 30.533 15.4945 28.2266V7.35868H19.3406C19.2308 6.91936 19.2308 6.48003 19.2308 6.04071H14.0659V26.9086C13.956 29.2151 12.0879 31.0822 9.67031 31.0822C8.90108 31.0822 8.24174 30.8625 7.69229 30.533C8.24174 31.7412 9.56042 32.4002 11.0989 32.4002Z" fill="#25F4EE"/>
<path d="M26.3736 14.4977V13.2896C24.945 13.2896 23.6264 12.8502 22.4176 12.0814C23.4066 13.2896 24.7253 14.1682 26.3736 14.4977Z" fill="#25F4EE"/>
<path d="M22.4176 12.0814C21.3187 10.7635 20.6593 9.116 20.6593 7.3587H19.2308C19.5604 9.33566 20.7692 11.093 22.4176 12.0814Z" fill="#FE2C55"/>
<path d="M9.56043 22.4055C7.14285 22.4055 5.16483 24.3825 5.16483 26.7988C5.16483 28.4462 6.15384 29.9839 7.47252 30.6428C7.03296 29.874 6.70329 28.9954 6.70329 28.0069C6.70329 25.5906 8.68131 23.6137 11.0989 23.6137C11.5385 23.6137 11.978 23.7235 12.4176 23.8333V18.5614C11.978 18.4516 11.5385 18.4516 11.0989 18.4516C10.989 18.4516 10.989 18.4516 10.8791 18.4516V22.5153C10.4396 22.4055 9.99999 22.4055 9.56043 22.4055Z" fill="#FE2C55"/>
<path d="M26.3736 14.4977V18.5614C23.6264 18.5614 21.2088 17.6828 19.1209 16.255V26.7988C19.1209 32.0706 14.8351 36.3541 9.56042 36.3541C7.47251 36.3541 5.60438 35.6951 4.06592 34.5968C5.82416 36.4639 8.35163 37.672 11.0989 37.672C16.3736 37.672 20.6593 33.3886 20.6593 28.1167V17.5729C22.7472 19.0008 25.1648 19.8794 27.9121 19.8794V14.7173C27.3626 14.6075 26.8132 14.6075 26.3736 14.4977Z" fill="#FE2C55"/>
<path d="M19.1209 26.689V16.1452C21.2088 17.573 23.6264 18.4516 26.3736 18.4516V14.3879C24.8352 14.0584 23.4066 13.1797 22.4176 12.0814C20.7692 10.9831 19.6703 9.33566 19.2308 7.3587H15.3846V28.2266C15.2747 30.533 13.4066 32.4002 10.989 32.4002C9.56043 32.4002 8.24175 31.6314 7.47252 30.5331C6.04395 29.7642 5.16482 28.3364 5.16482 26.689C5.16482 24.2727 7.14285 22.2957 9.56043 22.2957C9.99999 22.2957 10.4396 22.4056 10.8791 22.5154V18.4516C5.71428 18.5615 1.53845 22.8449 1.53845 28.0069C1.53845 30.533 2.52746 32.8395 4.06592 34.487C5.60438 35.5853 7.47252 36.2443 9.56043 36.2443C14.8352 36.3541 19.1209 31.9609 19.1209 26.689Z" fill="#EEEEEE"/>
<path d="M32.967 14.4977H49.2308L47.6923 19.1106H43.5165V36.2442H38.2418V19.1106H32.967V14.4977Z" fill="#EEEEEE"/>
<path d="M75.8242 14.4977H92.4176L90.8791 19.1106H86.2637V36.2442H80.989V19.1106H75.7143L75.8242 14.4977Z" fill="#EEEEEE"/>
<path d="M50.2198 21.4171H55.3846V36.3541H50.2198V21.4171Z" fill="#EEEEEE"/>
<path d="M57.4725 14.3879H62.6374V24.6022L67.8022 19.5499H73.956L67.4725 25.8103L74.8352 36.3541H69.1209L64.2857 29.1052L62.7473 30.6429V36.3541H57.5824L57.4725 14.3879Z" fill="#EEEEEE"/>
<path d="M112.637 14.3879H117.802V24.6022L122.967 19.5499H129.121L122.637 25.9201L129.89 36.3541H124.176L119.341 29.1052L117.802 30.6429V36.3541H112.637V14.3879Z" fill="#EEEEEE"/>
<path d="M52.8571 19.7696C54.2857 19.7696 55.4945 18.5614 55.4945 17.1336C55.4945 15.7058 54.2857 14.4977 52.8571 14.4977C51.4286 14.4977 50.2198 15.7058 50.2198 17.1336C50.2198 18.5614 51.3187 19.7696 52.8571 19.7696Z" fill="#EEEEEE"/>
<path d="M91.7583 27.3479C91.7583 22.6252 95.3846 18.7811 100 18.4516C99.7802 18.4516 99.4506 18.4516 99.2308 18.4516C94.2857 18.4516 90.3297 22.4055 90.3297 27.3479C90.3297 32.2903 94.2857 36.2442 99.2308 36.2442C99.4506 36.2442 99.7802 36.2442 100 36.2442C95.3846 35.9147 91.7583 32.0706 91.7583 27.3479Z" fill="#25F4EE"/>
<path d="M101.978 18.4516C101.758 18.4516 101.429 18.4516 101.209 18.4516C105.824 18.7811 109.451 22.6252 109.451 27.3479C109.451 32.0706 105.824 35.9147 101.209 36.2442C101.429 36.2442 101.758 36.2442 101.978 36.2442C106.923 36.2442 110.879 32.2903 110.879 27.3479C110.879 22.5153 106.923 18.4516 101.978 18.4516Z" fill="#FE2C55"/>
<path d="M100.549 31.7412C98.1319 31.7412 96.2637 29.7642 96.2637 27.4577C96.2637 25.0415 98.2418 23.1743 100.549 23.1743C102.857 23.1743 104.835 25.1513 104.835 27.4577C104.945 29.7642 102.967 31.7412 100.549 31.7412ZM100.549 18.4516C95.6044 18.4516 91.6483 22.4055 91.6483 27.3479C91.6483 32.2903 95.6044 36.2442 100.549 36.2442C105.495 36.2442 109.451 32.2903 109.451 27.3479C109.56 22.5153 105.495 18.4516 100.549 18.4516Z" fill="#EEEEEE"/>
</g>
</g>
<defs>
<clipPath id="clip0_20_94">
<rect width="130" height="46.129" fill="white"/>
</clipPath>
</defs>
</svg>
