<svg width="130" height="30" viewBox="0 0 130 30" fill="none" xmlns="http://www.w3.org/2000/svg">
<path d="M40.5695 4.53806C40.0919 2.76378 38.6929 1.36483 36.9186 0.887139C33.6772 0 20.7113 0 20.7113 0C20.7113 0 7.74541 0 4.50394 0.853018C2.76378 1.33071 1.33071 2.76378 0.853018 4.53806C0 7.77953 0 14.5013 0 14.5013C0 14.5013 0 21.2572 0.853018 24.4646C1.33071 26.2388 2.72966 27.6378 4.50394 28.1155C7.77953 29.0026 20.7113 29.0026 20.7113 29.0026C20.7113 29.0026 33.6772 29.0026 36.9186 28.1496C38.6929 27.6719 40.0919 26.273 40.5695 24.4987C41.4226 21.2572 41.4226 14.5354 41.4226 14.5354C41.4226 14.5354 41.4567 7.77953 40.5695 4.53806Z" fill="#FF0000"/>
<path d="M16.5827 8.29138V20.7113L27.3648 14.5014L16.5827 8.29138Z" fill="white"/>
<path d="M60.1549 26.4094C59.336 25.8635 58.7559 25.0105 58.4147 23.8162C58.0735 22.6561 57.9029 21.0866 57.9029 19.1758V16.5485C57.9029 14.6036 58.1076 13.0341 58.483 11.8399C58.8924 10.6456 59.5066 9.79262 60.3255 9.24669C61.1785 8.70076 62.2704 8.4278 63.6352 8.4278C64.9659 8.4278 66.0578 8.70076 66.8767 9.24669C67.6956 9.79262 68.2756 10.6798 68.651 11.8399C69.0263 13 69.231 14.5695 69.231 16.5485V19.1758C69.231 21.1207 69.0604 22.6561 68.6851 23.8504C68.3097 25.0105 67.7297 25.8976 66.9108 26.4435C66.0919 26.9895 64.9659 27.2624 63.567 27.2624C62.1339 27.2283 60.9738 26.9554 60.1549 26.4094ZM64.7612 23.5433C65 22.9632 65.1024 21.9737 65.1024 20.643V14.979C65.1024 13.6824 65 12.727 64.7612 12.1128C64.5223 11.4987 64.147 11.2257 63.567 11.2257C63.021 11.2257 62.6116 11.5328 62.4069 12.1128C62.168 12.727 62.0657 13.6824 62.0657 14.979V20.643C62.0657 21.9737 62.168 22.9632 62.4069 23.5433C62.6116 24.1233 63.021 24.4304 63.6011 24.4304C64.147 24.4304 64.5223 24.1575 64.7612 23.5433Z" fill="#EEEEEE"/>
<path d="M123.142 19.2099V20.1312C123.142 21.2913 123.176 22.1785 123.244 22.7585C123.312 23.3386 123.449 23.7821 123.688 24.021C123.892 24.2939 124.234 24.4304 124.711 24.4304C125.325 24.4304 125.735 24.1916 125.974 23.7139C126.213 23.2362 126.315 22.4514 126.349 21.3254L129.864 21.5302C129.898 21.7008 129.898 21.9055 129.898 22.1785C129.898 23.8504 129.454 25.1128 128.533 25.9317C127.612 26.7506 126.315 27.1601 124.643 27.1601C122.63 27.1601 121.231 26.5118 120.412 25.2493C119.593 23.9869 119.184 22.042 119.184 19.3806V16.2073C119.184 13.4777 119.593 11.4987 120.446 10.2362C121.299 8.97373 122.732 8.35956 124.745 8.35956C126.144 8.35956 127.236 8.63252 127.987 9.14433C128.738 9.65615 129.249 10.475 129.556 11.5328C129.864 12.6246 130 14.126 130 16.0367V19.1417H123.142V19.2099ZM123.654 11.5669C123.449 11.8399 123.312 12.2493 123.244 12.8294C123.176 13.4094 123.142 14.2966 123.142 15.4908V16.7874H126.144V15.4908C126.144 14.3307 126.11 13.4435 126.042 12.8294C125.974 12.2152 125.803 11.8058 125.598 11.5669C125.394 11.3281 125.053 11.1916 124.643 11.1916C124.165 11.1575 123.858 11.2939 123.654 11.5669Z" fill="#EEEEEE"/>
<path d="M50.1916 18.8687L45.5512 2.04718H49.6116L51.2494 9.6561C51.6588 11.5327 51.9659 13.1364 52.1706 14.4671H52.273C52.4095 13.5117 52.7166 11.9422 53.1943 9.69022L54.9003 2.04718H58.9607L54.252 18.8687V26.9212H50.2257V18.8687H50.1916Z" fill="#EEEEEE"/>
<path d="M82.4357 8.76904V26.9554H79.2284L78.8872 24.7375H78.7848C77.9318 26.4095 76.6011 27.2625 74.8609 27.2625C73.6667 27.2625 72.7796 26.853 72.1995 26.0683C71.6195 25.2835 71.3465 24.0551 71.3465 22.3491V8.76904H75.441V22.1103C75.441 22.9291 75.5433 23.5092 75.7139 23.8504C75.8845 24.1916 76.1916 24.3622 76.6011 24.3622C76.9423 24.3622 77.2835 24.2599 77.6247 24.021C77.9659 23.8163 78.2048 23.5433 78.3412 23.2021V8.76904H82.4357Z" fill="#EEEEEE"/>
<path d="M103.42 8.76904V26.9554H100.213L99.8714 24.7375H99.7691C98.916 26.4095 97.5853 27.2625 95.8452 27.2625C94.651 27.2625 93.7638 26.853 93.1838 26.0683C92.6037 25.2835 92.3307 24.0551 92.3307 22.3491V8.76904H96.4252V22.1103C96.4252 22.9291 96.5276 23.5092 96.6982 23.8504C96.8688 24.1916 97.1759 24.3622 97.5853 24.3622C97.9265 24.3622 98.2678 24.2599 98.609 24.021C98.9502 23.8163 99.189 23.5433 99.3255 23.2021V8.76904H103.42Z" fill="#EEEEEE"/>
<path d="M93.5591 5.35689H89.4987V26.9212H85.5066V5.35689H81.4462V2.04718H93.5591V5.35689Z" fill="#EEEEEE"/>
<path d="M116.966 11.6692C116.727 10.5091 116.318 9.69022 115.772 9.17841C115.226 8.6666 114.441 8.39363 113.486 8.39363C112.735 8.39363 112.018 8.59836 111.37 9.04193C110.722 9.45138 110.21 10.0314 109.869 10.7138H109.835V1.12592H105.877V26.9212H109.255L109.664 25.2152H109.766C110.074 25.8293 110.551 26.307 111.199 26.6823C111.848 27.0236 112.53 27.2283 113.315 27.2283C114.714 27.2283 115.703 26.58 116.352 25.3175C117 24.055 117.341 22.0419 117.341 19.3464V16.4802C117.307 14.3989 117.205 12.7952 116.966 11.6692ZM113.213 19.0734C113.213 20.4041 113.144 21.4278 113.042 22.1784C112.94 22.9291 112.735 23.475 112.496 23.7821C112.223 24.0892 111.882 24.2598 111.472 24.2598C111.131 24.2598 110.824 24.1915 110.551 24.0209C110.278 23.8503 110.039 23.6115 109.869 23.3044V12.9999C110.005 12.5222 110.244 12.1128 110.585 11.7716C110.927 11.4645 111.302 11.2939 111.677 11.2939C112.087 11.2939 112.428 11.4645 112.633 11.7716C112.871 12.1128 113.008 12.6587 113.11 13.4094C113.213 14.1942 113.247 15.286 113.247 16.685V19.0734H113.213Z" fill="#EEEEEE"/>
</svg>
